<?xml version="1.0" encoding="UTF-8"?> <svg xmlns="http://www.w3.org/2000/svg" width="500" height="500" viewBox="0 0 500 500" fill="none"><path d="M250 250.156C222.031 250.156 199.297 227.422 199.297 199.453V138.672C199.297 110.703 222.031 87.9688 250 87.9688C277.969 87.9688 300.703 110.703 300.703 138.672V199.453C300.703 227.422 277.969 250.156 250 250.156ZM250 103.203C230.391 103.203 214.453 119.141 214.453 138.75V199.531C214.453 219.141 230.391 235.078 250 235.078C269.609 235.078 285.547 219.141 285.547 199.531V138.75C285.547 119.141 269.609 103.203 250 103.203ZM280.391 306.875H219.609C215.391 306.875 212.031 303.516 212.031 299.297C212.031 295.078 215.391 291.719 219.609 291.719H280.391C284.609 291.719 287.969 295.078 287.969 299.297C287.969 303.516 284.609 306.875 280.391 306.875Z" fill="#2C17AB"></path><path d="M250 276.719C208.438 276.719 174.531 242.891 174.531 201.25V186.797C174.531 182.578 177.891 179.219 182.109 179.219C186.328 179.219 189.688 182.578 189.688 186.797V201.25C189.688 234.453 216.719 261.562 250 261.562C283.281 261.562 310.313 234.531 310.313 201.25V186.797C310.313 182.578 313.672 179.219 317.891 179.219C322.109 179.219 325.469 182.578 325.469 186.797V201.25C325.469 242.891 291.562 276.719 250 276.719Z" fill="#2C17AB"></path><path d="M250 306.875C245.781 306.875 242.422 303.516 242.422 299.297V269.141C242.422 264.922 245.781 261.562 250 261.562C254.219 261.562 257.578 264.922 257.578 269.141V299.297C257.578 303.516 254.219 306.875 250 306.875Z" fill="#2C17AB"></path><path d="M468.75 492.422H31.25C14.0625 492.422 0 478.437 0 461.172V38.8281C0 21.6406 13.9844 7.57812 31.25 7.57812H468.75C485.938 7.57812 500 21.5625 500 38.8281V461.25C500 478.437 486.016 492.422 468.75 492.422ZM31.25 22.7344C22.4219 22.7344 15.1563 29.9219 15.1563 38.8281V461.25C15.1563 470.078 22.3438 477.344 31.25 477.344H468.75C477.578 477.344 484.844 470.156 484.844 461.25V38.8281C484.844 30 477.656 22.7344 468.75 22.7344H31.25V22.7344Z" fill="#2C17AB"></path><path d="M452.969 347.969H47.0312C42.8125 347.969 39.4531 344.609 39.4531 340.391V54.5312C39.4531 50.3125 42.8125 46.9531 47.0312 46.9531H453.047C457.266 46.9531 460.625 50.3125 460.625 54.5312V340.313C460.547 344.531 457.188 347.969 452.969 347.969ZM54.6094 332.812H445.469V62.1094H54.6094V332.812ZM89.5312 451.562C68.0469 451.562 50.5469 434.063 50.5469 412.578C50.5469 391.094 68.0469 373.594 89.5312 373.594C111.016 373.594 128.516 391.094 128.516 412.578C128.516 434.063 111.016 451.562 89.5312 451.562ZM89.5312 388.75C76.4062 388.75 65.7031 399.453 65.7031 412.578C65.7031 425.703 76.4062 436.406 89.5312 436.406C102.656 436.406 113.359 425.703 113.359 412.578C113.359 399.453 102.656 388.75 89.5312 388.75ZM185.469 443.359C168.516 443.359 154.766 429.609 154.766 412.656C154.766 395.703 168.516 381.953 185.469 381.953C202.422 381.953 216.172 395.703 216.172 412.656C216.172 429.609 202.422 443.359 185.469 443.359ZM185.469 397.031C176.875 397.031 169.922 403.984 169.922 412.578C169.922 421.172 176.875 428.125 185.469 428.125C194.062 428.125 201.016 421.172 201.016 412.578C201.016 403.984 194.062 397.031 185.469 397.031ZM327.734 446.641C327.734 447.031 327.656 447.422 327.5 447.656C327.344 447.969 327.031 448.203 326.484 448.359C325.938 448.516 325.078 448.672 324.062 448.75C322.969 448.828 321.562 448.828 319.688 448.828C318.125 448.828 316.875 448.828 315.938 448.75C315 448.672 314.297 448.516 313.75 448.359C313.203 448.125 312.812 447.891 312.578 447.578C312.344 447.266 312.188 446.875 312.031 446.406L305.625 430.391C304.844 428.594 304.063 426.953 303.359 425.547C302.656 424.141 301.797 422.969 300.859 422.031C299.922 421.094 298.906 420.391 297.734 419.922C296.562 419.453 295.156 419.219 293.594 419.219H289.062V446.562C289.062 446.953 288.906 447.266 288.672 447.578C288.438 447.891 288.047 448.125 287.5 448.281C286.953 448.438 286.172 448.594 285.313 448.75C284.375 448.828 283.203 448.906 281.797 448.906C280.391 448.906 279.219 448.828 278.281 448.75C277.344 448.672 276.563 448.516 276.016 448.281C275.469 448.125 275.078 447.891 274.844 447.578C274.609 447.266 274.531 446.953 274.531 446.562V381.328C274.531 379.688 274.922 378.516 275.781 377.812C276.641 377.109 277.656 376.719 278.828 376.719H297.422C299.297 376.719 300.859 376.719 302.109 376.797C303.359 376.875 304.453 376.953 305.469 377.109C308.359 377.5 310.938 378.203 313.281 379.219C315.625 380.234 317.578 381.484 319.141 383.125C320.781 384.766 321.953 386.641 322.812 388.828C323.672 391.016 324.062 393.594 324.062 396.406C324.062 398.828 323.75 401.016 323.125 402.969C322.5 404.922 321.641 406.719 320.469 408.281C319.297 409.844 317.812 411.172 316.094 412.344C314.375 413.516 312.344 414.453 310.156 415.156C311.25 415.703 312.266 416.328 313.203 417.031C314.141 417.734 315 418.672 315.859 419.688C316.719 420.781 317.5 421.953 318.203 423.281C318.906 424.609 319.688 426.172 320.391 427.891L326.406 442.031C326.953 443.438 327.344 444.453 327.5 445.078C327.578 445.781 327.734 446.25 327.734 446.641ZM308.906 397.891C308.906 395.547 308.359 393.516 307.266 391.875C306.172 390.234 304.453 389.062 302.031 388.438C301.328 388.281 300.469 388.125 299.531 387.969C298.594 387.891 297.266 387.812 295.625 387.812H289.062V408.203H296.484C298.594 408.203 300.391 407.969 301.953 407.422C303.516 406.953 304.766 406.25 305.859 405.313C306.875 404.375 307.656 403.359 308.203 402.031C308.594 400.859 308.906 399.453 308.906 397.891ZM381.016 442.812C381.016 443.906 380.938 444.766 380.859 445.469C380.781 446.172 380.625 446.797 380.469 447.188C380.312 447.656 380.078 447.969 379.766 448.125C379.453 448.359 379.219 448.438 378.828 448.438H342.734C341.484 448.438 340.469 448.047 339.688 447.344C338.828 446.641 338.438 445.469 338.438 443.828V381.172C338.438 379.531 338.828 378.359 339.688 377.656C340.547 376.953 341.562 376.563 342.734 376.563H378.594C378.906 376.563 379.219 376.641 379.453 376.875C379.688 377.031 379.922 377.422 380.156 377.812C380.391 378.203 380.469 378.906 380.547 379.609C380.625 380.312 380.703 381.25 380.703 382.344C380.703 383.359 380.625 384.297 380.547 385C380.469 385.703 380.312 386.328 380.156 386.719C380 387.187 379.766 387.5 379.453 387.656C379.219 387.891 378.906 387.969 378.594 387.969H352.969V405.547H374.688C375 405.547 375.313 405.625 375.625 405.859C375.938 406.094 376.172 406.406 376.328 406.797C376.484 407.187 376.641 407.812 376.719 408.516C376.797 409.219 376.875 410.078 376.875 411.172C376.875 412.266 376.797 413.125 376.719 413.828C376.641 414.531 376.484 415.078 376.328 415.547C376.172 415.938 375.938 416.25 375.625 416.484C375.313 416.641 375.078 416.797 374.688 416.797H352.969V437.031H378.828C379.141 437.031 379.453 437.109 379.766 437.344C380.078 437.578 380.312 437.891 380.469 438.281C380.625 438.672 380.781 439.297 380.859 440C380.938 440.859 381.016 441.719 381.016 442.812ZM441.875 437.656C441.875 438.594 441.875 439.375 441.797 440C441.719 440.625 441.641 441.172 441.562 441.641C441.484 442.109 441.328 442.5 441.094 442.812C440.938 443.125 440.625 443.516 440.234 443.984C439.844 444.375 439.062 444.922 437.891 445.625C436.719 446.328 435.312 446.953 433.594 447.578C431.875 448.203 430 448.672 427.812 449.141C425.625 449.531 423.281 449.766 420.781 449.766C415.859 449.766 411.406 448.984 407.422 447.5C403.438 446.016 400.078 443.75 397.344 440.703C394.531 437.656 392.422 433.906 390.938 429.375C389.453 424.844 388.75 419.609 388.75 413.594C388.75 407.5 389.531 402.031 391.172 397.344C392.812 392.578 395.078 388.594 397.969 385.391C400.859 382.188 404.375 379.766 408.516 378.047C412.578 376.406 417.109 375.547 422.031 375.547C424.062 375.547 425.938 375.703 427.812 376.016C429.688 376.328 431.406 376.797 432.969 377.344C434.531 377.891 435.938 378.516 437.188 379.219C438.438 379.922 439.297 380.547 439.844 381.016C440.312 381.484 440.703 381.953 440.859 382.266C441.016 382.578 441.172 383.047 441.328 383.516C441.406 384.062 441.484 384.609 441.562 385.312C441.641 386.016 441.641 386.875 441.641 387.891C441.641 388.984 441.641 389.922 441.562 390.703C441.484 391.484 441.328 392.109 441.172 392.578C441.016 393.047 440.781 393.438 440.469 393.594C440.234 393.828 439.922 393.906 439.609 393.906C439.062 393.906 438.359 393.594 437.5 392.969C436.641 392.344 435.547 391.563 434.219 390.781C432.891 390 431.25 389.297 429.375 388.594C427.5 387.969 425.312 387.656 422.656 387.656C419.844 387.656 417.266 388.203 415 389.375C412.734 390.547 410.859 392.188 409.297 394.375C407.734 396.562 406.562 399.141 405.703 402.266C404.922 405.313 404.453 408.828 404.453 412.656C404.453 416.875 404.922 420.547 405.781 423.594C406.641 426.719 407.891 429.219 409.531 431.25C411.172 433.281 413.047 434.766 415.391 435.703C417.656 436.719 420.234 437.187 423.047 437.187C425.625 437.187 427.891 436.875 429.766 436.25C431.641 435.625 433.281 435 434.609 434.219C435.938 433.516 437.031 432.812 437.969 432.187C438.828 431.562 439.531 431.328 440 431.328C440.391 431.328 440.703 431.406 440.859 431.563C441.094 431.719 441.25 432.031 441.406 432.422C441.562 432.891 441.641 433.516 441.719 434.297C441.875 435.234 441.875 436.328 441.875 437.656Z" fill="#2C17AB"></path></svg> 