<?xml version="1.0" encoding="UTF-8"?> <svg xmlns="http://www.w3.org/2000/svg" width="500" height="500" viewBox="0 0 500 500" fill="none"><g clip-path="url(#clip0_304_1453)"><path d="M233.124 406.254L259.687 379.691C261.644 377.933 263.93 376.579 266.412 375.706C268.894 374.833 271.524 374.458 274.151 374.604C276.779 374.749 279.351 375.411 281.722 376.552C284.093 377.693 286.216 379.291 287.968 381.254L338.905 432.191C340.868 433.944 342.466 436.066 343.607 438.437C344.748 440.808 345.41 443.38 345.556 446.008C345.701 448.635 345.326 451.265 344.453 453.747C343.58 456.229 342.226 458.515 340.468 460.473L317.03 483.91C308.684 492.508 297.666 498.017 285.78 499.535C255.468 503.051 194.062 495.082 106.093 411.801C22.8116 323.676 14.9209 262.269 18.4366 231.879C19.9607 219.995 25.4688 208.978 34.0616 200.629L57.4991 177.191C61.4524 173.651 66.6465 171.82 71.946 172.098C77.2455 172.376 82.2193 174.741 85.7803 178.676L136.718 229.613C140.669 233.177 143.05 238.158 143.343 243.471C143.635 248.783 141.816 253.996 138.28 257.973L110.858 285.316C109.561 286.674 108.697 288.387 108.377 290.238C108.057 292.088 108.295 293.992 109.062 295.707C116.327 312.973 142.733 362.738 221.874 407.504C223.644 408.501 225.682 408.917 227.701 408.693C229.719 408.468 231.617 407.615 233.124 406.254V406.254Z" fill="#2C17AB"></path><path d="M318.672 0C228.359 0 155.156 62.9688 155.156 140.625C155.556 161.484 160.847 181.957 170.604 200.397C180.36 218.838 194.309 234.731 211.328 246.797V246.797V329.688L285.312 278.516C296.295 280.503 307.433 281.497 318.594 281.484C408.984 281.25 482.188 218.75 482.188 140.625C482.188 62.5 408.984 0 318.672 0ZM254.922 131.719C258.012 131.719 261.033 132.635 263.603 134.352C266.172 136.069 268.175 138.509 269.357 141.364C270.54 144.219 270.85 147.361 270.247 150.392C269.644 153.423 268.156 156.207 265.97 158.392C263.785 160.577 261.001 162.066 257.97 162.669C254.939 163.271 251.798 162.962 248.942 161.779C246.087 160.597 243.647 158.594 241.93 156.025C240.213 153.455 239.297 150.434 239.297 147.344C239.297 143.2 240.943 139.225 243.873 136.295C246.804 133.365 250.778 131.719 254.922 131.719ZM318.672 163.516C315.582 163.516 312.561 162.599 309.991 160.882C307.422 159.165 305.419 156.725 304.236 153.87C303.054 151.015 302.744 147.873 303.347 144.842C303.95 141.811 305.438 139.027 307.623 136.842C309.809 134.657 312.593 133.169 315.624 132.566C318.655 131.963 321.796 132.272 324.651 133.455C327.506 134.638 329.947 136.64 331.664 139.21C333.38 141.779 334.297 144.8 334.297 147.891C334.297 149.943 333.893 151.974 333.107 153.87C332.322 155.766 331.171 157.488 329.72 158.939C328.269 160.39 326.547 161.541 324.651 162.326C322.756 163.111 320.724 163.516 318.672 163.516V163.516ZM382.812 164.062C379.722 164.062 376.701 163.146 374.132 161.429C371.562 159.712 369.559 157.272 368.377 154.417C367.194 151.562 366.885 148.42 367.488 145.389C368.091 142.358 369.579 139.574 371.764 137.389C373.949 135.204 376.733 133.716 379.764 133.113C382.795 132.51 385.937 132.819 388.792 134.002C391.647 135.185 394.087 137.187 395.804 139.757C397.521 142.326 398.437 145.347 398.437 148.438C398.437 152.582 396.791 156.556 393.861 159.486C390.931 162.416 386.957 164.062 382.812 164.062Z" fill="#7766E0"></path></g><defs><clipPath id="clip0_304_1453"><rect width="500" height="500" fill="white"></rect></clipPath></defs></svg> 